# xmcd
#
# Track frame offsets:
#	150
#	38746
#	66234
#	94317
#	116356
#	141691
#	167155
#	194345
#	217479
#	236836
#	257896
#	281469
#	306657
#	331261
#
# Disc length: 4705
#
# Revision: 1
# Processed by: cddbd v1.5.1PL0 Copyright (c) Steve Scherf et al.
# Submitted via: CDex 1.50
# Normalized: r0:TRMNUM
#
DISCID=e7125f0e
DTITLE=DJ WIKED - LIL - JON AND THE EASTSIDE BOYS
DYEAR=2800
DGENRE=Salsa
TTITLE0=DJ WIKED - PUT YOUR HOOD UP (LIL JOHN AND THE EASTSIDE BOYS) 1600
TTITLE1=DJ WIKED - KNOCKIN HEADS OFF (LIL JOHN AND THE EASTSIDE BOYS FT JADAKISS) 1600
TTITLE2=DJ WIKED - GET LOW (LIL JOHN AND THE EASTSIDE BOYS FT YING YANG TWINS) 1600
TTITLE3=DJ WIKED - COME GET SOME (TLC FT LIL JOHN AND YOUNGBLOODZ) 1600
TTITLE4=DJ WIKED - DAMN (LIL JOHN AND THE EASTSIDE BOYS FT YOUNGBLOODZ) 1600
TTITLE5=DJ WIKED - BIA BIA (LIL JOHN AND THE EASTSIDE BOYS FT LUDACRIS AND TOO SHORT) 1600
TTITLE6=DJ WIKED - GET CRUNK (LIL JOHN AND THE EASTSIDE BOYS) 1600
TTITLE7=DJ WIKED - I DONT GIVE A FUCK (LIL JOHN AND THE EASTSIDE BOYS) 1600
TTITLE8=DJ WIKED - GET LOWER (Lil John and The Eastside Boys) 1600
TTITLE9=DJ WIKED - WHO RUN THIS (LIL JOHN AND THE EASTSIDE BOYS FT PASTOR TROY) 1600
TTITLE10=DJ WIKED - QUICK TO BACK DOWN (Lil John and The Eastside Boys FT YOUNGBLOODZ LUDACRIS AND BONECRUSHER)
TTITLE11=DJ WIKED - Ohh Na Na Naa Naa (LIL JOHN AND THE EASTSIDE BOYS) 1600
TTITLE12=DJ WIKED - DAMN  REMIX (Lil John and The Eastside Boys FT YOUNGBLOODZ LUDACRIS AND BONECRUSHER) 1600
TTITLE13=DJ WIKED - Quit Hatin (TOO SHORT LIL JOHN AND THE EASTSIDE BOYS AND TWISTA)
EXTD=YEAR: 2800
EXTT0=
EXTT1=
EXTT2=
EXTT3=
EXTT4=
EXTT5=
EXTT6=
EXTT7=
EXTT8=
EXTT9=
EXTT10=
EXTT11=
EXTT12=
EXTT13=
PLAYORDER=
